{"title":"Naughty Boy ft. Wiz Khalifa &amp;, Ella Eyre - Think About It 72","uid":9122053,"size":31969976,"categoryP":"video","categoryS":"music_videos","magnet":"?xt=urn:btih:bba8f602a4a62c96af005057f131f8d7c775c03f&amp;dn=Naughty+Boy+ft.+Wiz+Khalifa+%26amp%3B%2C+Ella+Eyre+-+Think+About+It+72&amp;tr=udp%3A%2F%2Ftracker.openbittorrent.com%3A80&amp;tr=udp%3A%2F%2Fopen.demonii.com%3A1337&amp;tr=udp%3A%2F%2Ftracker.coppersurfer.tk%3A6969&amp;tr=udp%3A%2F%2Fexodus.desync.com%3A6969","seeders":1,"leechers":0,"uploader":"canc232","files":1,"time":1383154075,"description":"Naughty Boy ft. Wiz Khalifa, Ella Eyre - Think About It 720p [GWC]\n\nCOVER : &lt;a href=&quot;\nhttp://s20.postimg.org/55oxd8irh/THI.jpg&quot; rel=&quot;nofollow&quot; target=&quot;_NEW&quot;&gt;\nhttp://s20.postimg.org/55oxd8irh/THI.jpg&lt;/a&gt;\n\nTHUMBNAIL IMAGE : &lt;a href=&quot;\nhttp://img801.imageshack.us/img801/1050/bh1f.jpg&quot; rel=&quot;nofollow&quot; target=&quot;_NEW&quot;&gt;\nhttp://img801.imageshack.us/img801/1050/bh1f.jpg&lt;/a&gt;\n\nMEDIA INFO :\n\nGeneral \nFormat : MPEG-4 \nFile size : 30.5 MiB \nDuration : 3mn 13s \nOverall bit rate mode : Variable \nOverall bit rate : 1 319 Kbps \n\nVideo \nFormat : AVC \nFormat profile : &lt;a class=&quot;__cf_email__&quot; href=&quot;/cdn-cgi/l/email-protection&quot; data-cfemail=&quot;2b63424c436b6718051a&quot;&gt;[email&amp;#160;protected]&lt;/a&gt;&lt;script cf-hash='f9e31' type=&quot;text/javascript&quot;&gt;\n/* &lt;![CDATA[ */!function(){try{var t=&quot;currentScript&quot;in document?document.currentScript:function(){for(var t=document.getElementsByTagName(&quot;script&quot;),e=t.length;e--;)if(t[e].getAttribute(&quot;cf-hash&quot;))return t[e]}();if(t&amp;&amp;t.previousSibling){var e,r,n,i,c=t.previousSibling,a=c.getAttribute(&quot;data-cfemail&quot;);if(a){for(e=&quot;&quot;,r=parseInt(a.substr(0,2),16),n=2;a.length-n;n+=2)i=parseInt(a.substr(n,2),16)^r,e+=String.fromCharCode(i);e=document.createTextNode(e),c.parentNode.replaceChild(e,c)}}}catch(u){}}();/* ]]&gt; */&lt;/script&gt; \nFormat settings, CABAC : Yes \nDuration : 3mn 13s \nSource duration : 3mn 13s \nBit rate : 1 234 Kbps \nWidth : 1 280 pixels \nHeight : 720 pixels \nDisplay aspect ratio : 16:9 \nFrame rate : 25.000 fps \nStream size : 28.5 MiB (94%) \nTitle : Naughty Boy ft. Wiz Khalifa &amp; Ella Eyre - Think About It 720p x264 AAC E-Subs [GWC] \n\n\nAudio \nFormat : AAC \nFormat profile : LC \nDuration : 3mn 13s \nBit rate mode : Variable \nChannel(s) : 2 channels \nSampling rate : 48.0 KHz \nStream size : 1.91 MiB (6%) \nLanguage : English \n\nText \nFormat : Timed Text \nCodec ID : tx3g \nDuration : 3mn 13s \nTitle : English Subtitle by [GWC] \nLanguage : English \n\n","torrent":{"xt":"urn:btih:bba8f602a4a62c96af005057f131f8d7c775c03f","amp;dn":"Naughty+Boy+ft.+Wiz+Khalifa+%26amp%3B%2C+Ella+Eyre+-+Think+About+It+72","amp;tr":["udp%3A%2F%2Ftracker.openbittorrent.com%3A80","udp%3A%2F%2Fopen.demonii.com%3A1337","udp%3A%2F%2Ftracker.coppersurfer.tk%3A6969","udp%3A%2F%2Fexodus.desync.com%3A6969"],"infoHash":"bba8f602a4a62c96af005057f131f8d7c775c03f","infoHashBuffer":{"type":"Buffer","data":[187,168,246,2,164,166,44,150,175,0,80,87,241,49,248,215,199,117,192,63]},"announce":[],"urlList":[]}}